<?xml version="1.0" encoding="UTF-8"?>
<svg width="24px" height="18px" viewBox="0 0 24 18" version="1.1" xmlns="http://www.w3.org/2000/svg" xmlns:xlink="http://www.w3.org/1999/xlink">
    <!-- Generator: Sketch 46.2 (44496) - http://www.bohemiancoding.com/sketch -->
    <title>Check (24x24)</title>
    <desc>Created with Sketch.</desc>
    <defs></defs>
    <g id="Page-1" stroke="none" stroke-width="1" fill="none" fill-rule="evenodd">
        <g id="Timers" transform="translate(-460.000000, -133.000000)" fill="#FFFFFF">
            <g id="Timer" transform="translate(15.000000, 119.000000)">
                <g id="Timer-control-icons" transform="translate(412.000000, 14.000000)">
                    <path d="M54.6562477,0.221091054 C54.3647471,-0.0736970179 53.8872035,-0.0736970179 53.5957029,0.221091054 L42.4115751,11.3554432 C42.1186162,11.6519921 41.6409917,11.6519921 41.3495721,11.3554432 L36.4496668,6.36363542 C36.3045376,6.21693472 36.1143088,6.1432432 35.9237559,6.14218669 C35.7303673,6.14077801 35.5341972,6.2137872 35.3876638,6.36363542 L33.2225818,8.31135411 C33.0776687,8.45911132 33,8.64404445 33,8.83742965 C33,9.03220152 33.0776687,9.23573361 33.2225818,9.38243431 L38.1636169,14.5679574 C38.4550365,14.8641542 38.9341194,15.3446017 39.2255389,15.6390376 L41.3495721,17.7804937 C41.6409917,18.0731688 42.1186162,18.0731688 42.4115751,17.7804937 L56.7802808,3.43360531 C57.0732397,3.13952157 57.0732397,2.65557434 56.7802808,2.36217294 L54.6562477,0.221091054 Z" id="Check-(24x24)"></path>
                </g>
            </g>
        </g>
    </g>
</svg>