<?xml version="1.0" encoding="UTF-8"?>
<svg width="20px" height="18px" viewBox="0 0 20 18" version="1.1" xmlns="http://www.w3.org/2000/svg" xmlns:xlink="http://www.w3.org/1999/xlink">
    <!-- Generator: Sketch 46.2 (44496) - http://www.bohemiancoding.com/sketch -->
    <title>Cross (16x16)</title>
    <desc>Created with Sketch.</desc>
    <defs></defs>
    <g id="Page-1" stroke="none" stroke-width="1" fill="none" fill-rule="evenodd">
        <g id="Timers" transform="translate(-498.000000, -133.000000)" fill="#FFFFFF">
            <g id="Timer" transform="translate(15.000000, 119.000000)">
                <g id="Timer-control-icons" transform="translate(412.000000, 14.000000)">
                    <path d="M90.7761315,2.16018428 C91.0746228,2.428779 91.0746228,2.86853345 90.7761315,3.1371496 L84.8020219,8.51292426 C84.5035306,8.78121886 84.5035306,9.22129487 84.8020219,9.49048985 L90.7730141,14.8689871 C91.0717195,15.1375818 91.0717195,15.5773363 90.7730141,15.8459524 L88.5977138,17.7990042 C88.2992225,18.0669986 87.8100185,18.0669986 87.511551,17.7990042 L81.542653,12.4208285 C81.2441617,12.1525124 80.7550291,12.1525124 80.4565616,12.4208285 L74.4824283,17.7947809 C74.183937,18.0633971 73.6948282,18.0633971 73.3963369,17.7947809 L71.2238685,15.8393282 C70.9253772,15.5707334 70.9253772,15.1306574 71.2238685,14.8623628 L77.1995011,9.48718843 C77.4979924,9.2188724 77.4979924,8.77881782 77.1995011,8.50962284 L71.228509,3.13172583 C70.9298035,2.86253085 70.9298035,2.4227764 71.2290801,2.15416024 L73.4030953,0.201108536 C73.7015628,-0.067186055 74.1906954,-0.067186055 74.4891867,0.202008925 L80.4580847,5.57838385 C80.7565522,5.84760026 81.2456848,5.84760026 81.5442475,5.5789841 L87.5175717,0.205331791 C87.816063,-0.062984238 88.3051718,-0.062984238 88.6036631,0.205331791 L90.7761315,2.16018428 Z" id="Cross-(16x16)"></path>
                </g>
            </g>
        </g>
    </g>
</svg>