<?xml version="1.0" encoding="UTF-8"?>
<svg width="35px" height="35px" viewBox="0 0 35 35" version="1.1" xmlns="http://www.w3.org/2000/svg" xmlns:xlink="http://www.w3.org/1999/xlink">
    <!-- Generator: Sketch 46.2 (44496) - http://www.bohemiancoding.com/sketch -->
    <title>logo-icon</title>
    <desc>Created with Sketch.</desc>
    <defs></defs>
    <g id="Page-1" stroke="none" stroke-width="1" fill="none" fill-rule="evenodd">
        <g id="Timers" transform="translate(-15.000000, -8.000000)" fill-rule="nonzero" fill="#E74C3C">
            <g id="Header" transform="translate(0.000000, -1.000000)">
                <g id="logo" transform="translate(15.000000, 9.000000)">
                    <g id="logo-icon">
                        <path d="M17.500644,34.963208 C7.8505,34.963208 0,27.144978 0,17.537436 C0,7.888587 7.8505,0.0367919994 17.500644,0.0367919994 C27.1495,0.0367919994 35,7.888587 35,17.537436 C35,27.144978 27.1495,34.963208 17.500644,34.963208 Z M17.500644,3.259102 C9.628192,3.259102 3.22231,9.664991 3.22231,17.537436 C3.22231,25.368574 9.628199,31.740898 17.500644,31.740898 C25.373089,31.740898 31.77769,25.368581 31.77769,17.537436 C31.77769,9.664991 25.373096,3.259102 17.500644,3.259102 Z" id="Shape"></path>
                        <path d="M10.605476,26.042471 C10.185903,26.042471 9.775367,25.877229 9.469404,25.57513 C9.060163,25.167177 8.898785,24.570742 9.049831,24.013031 L11.972632,13.148072 C12.121095,12.595527 12.549705,12.164341 13.099667,12.012 L23.967209,9.01432 C24.528791,8.861986 25.122643,9.019486 25.531891,9.424856 C25.941132,9.832809 26.10251,10.429244 25.951464,10.986955 L23.028663,21.851914 C22.8802,22.404459 22.45159,22.835645 21.901628,22.987986 L11.034086,25.985659 C10.89207,26.024404 10.748773,26.042471 10.605476,26.042471 Z M14.845082,14.87542 L12.893104,22.128197 L20.156206,20.12458 L22.108184,12.871803 L14.845082,14.87542 Z" id="Shape"></path>
                        <path d="M21.473018,23.044798 C21.063777,23.044798 20.653241,22.889881 20.339529,22.577457 L12.394781,14.710171 C11.762198,14.08533 11.757032,13.065451 12.383161,12.432868 C13.00929,11.802868 14.030464,11.792536 14.661759,12.422543 L22.606507,20.289829 C23.23909,20.91467 23.244256,21.934549 22.618127,22.567132 C22.303127,22.884715 21.887425,23.044798 21.473018,23.044798 Z" id="Shape"></path>
                    </g>
                </g>
            </g>
        </g>
    </g>
</svg>