<?xml version="1.0" encoding="UTF-8"?>
<svg width="24px" height="24px" viewBox="0 0 24 24" version="1.1" xmlns="http://www.w3.org/2000/svg" xmlns:xlink="http://www.w3.org/1999/xlink">
    <!-- Generator: Sketch 46.2 (44496) - http://www.bohemiancoding.com/sketch -->
    <title>options-icon</title>
    <desc>Created with Sketch.</desc>
    <defs></defs>
    <g id="Page-1" stroke="none" stroke-width="1" fill="none" fill-rule="evenodd">
        <g id="Timers" transform="translate(-661.000000, -14.000000)" fill="#FFFFFF">
            <g id="Header" transform="translate(0.000000, -1.000000)">
                <path d="M682.529988,25.147571 L684.158655,25.37942 C684.567192,25.43801 684.936147,25.82141 684.980184,26.23181 C684.980184,26.23181 685.006644,26.486825 685.006644,27.001067 C685.006644,27.515984 684.980184,27.770999 684.980184,27.770999 C684.936147,28.181399 684.567192,28.564448 684.158655,28.623038 L682.529988,28.855238 C682.121532,28.913477 681.68505,29.282837 681.559095,29.675363 L680.948274,31.155962 C680.756466,31.521461 680.802015,32.090783 681.049362,32.419805 L682.037913,33.73835 C682.285395,34.068074 682.265037,34.591793 681.992499,34.90151 L680.908908,35.9861 C680.599758,36.258665 680.07693,36.279347 679.746045,36.032405 L678.427905,35.04218 C678.096939,34.795238 677.528778,34.749284 677.164008,34.941497 L675.683301,35.551859 C675.289398,35.678138 674.9202,36.114485 674.863149,36.523508 L674.628924,38.152148 C674.571711,38.560793 674.188014,38.931206 673.778019,38.974001 C673.778019,38.974001 673.523274,39.001001 673.009194,39.001001 C672.494979,39.001001 672.240315,38.974001 672.240315,38.974001 C671.830239,38.931206 671.446407,38.560793 671.389248,38.152148 L671.155023,36.523508 C671.097891,36.114485 670.728855,35.678138 670.334871,35.551859 L668.854245,34.94255 C668.489475,34.749986 667.920558,34.795589 667.591023,35.042882 L666.272991,36.032405 C665.943402,36.279347 665.105754,36.018041 664.901364,35.830364 C664.697136,35.643065 664.527819,35.487653 664.526604,35.486249 C664.525092,35.484845 664.023378,34.948517 663.848445,34.732787 C663.67335,34.516382 663.732777,34.068074 663.980259,33.73835 L664.968891,32.419805 C665.216319,32.090783 665.261787,31.521461 665.070519,31.155962 L664.459104,29.675363 C664.333824,29.282837 663.896721,28.913477 663.488103,28.855238 L661.859598,28.623038 C661.45098,28.564448 661.081944,28.181399 661.038744,27.770999 C661.038744,27.770999 661.011609,27.515984 661.011609,27.001067 C661.011609,26.486825 661.038744,26.23181 661.038744,26.23181 C661.081944,25.82141 661.45098,25.43801 661.859598,25.37942 L663.488103,25.147571 C663.896721,25.08863 664.333824,24.719621 664.459104,24.326771 L665.070519,22.846145 C665.261787,22.480997 665.216319,21.911324 664.968891,21.581951 L663.980259,20.263055 C663.732777,19.934033 663.753972,19.410314 664.026348,19.101299 L665.110803,18.015656 C665.419926,17.74274 665.943402,17.722409 666.272991,17.970404 L667.591023,18.959225 C667.920558,19.206518 668.489475,19.252472 668.854245,19.059908 L670.334871,18.449897 C670.728855,18.32432 671.097891,17.887973 671.155023,17.479301 L671.389248,15.85031 C671.446407,15.441314 671.830239,15.071603 672.240315,15.028457 C672.240315,15.028457 672.494979,15.001457 673.009194,15.001457 C673.523274,15.001457 673.778019,15.028457 673.778019,15.028457 C674.188014,15.071603 674.571711,15.441314 674.628924,15.85031 L674.863149,17.479301 C674.9202,17.887973 675.289398,18.32432 675.683301,18.449897 L677.164008,19.059908 C677.528778,19.252472 678.096939,19.206518 678.427905,18.959225 L679.744587,17.970404 C680.075391,17.722409 680.5983,17.74274 680.907369,18.015656 L681.991203,19.101299 C682.265037,19.410314 682.285395,19.934033 682.037913,20.263055 L681.049362,21.581951 C680.802015,21.911324 680.756466,22.480997 680.948274,22.846145 L681.559095,24.326771 C681.68505,24.719621 682.121532,25.08863 682.529988,25.147571 Z M673.009194,30.001577 C674.665455,30.001577 676.008462,28.658462 676.008462,27.001067 C676.008462,25.344347 674.665455,24.000881 673.009194,24.000881 C671.352771,24.000881 670.00971,25.344347 670.00971,27.001067 C670.00971,28.658462 671.352771,30.001577 673.009194,30.001577 Z" id="options-icon"></path>
            </g>
        </g>
    </g>
</svg>