<?xml version="1.0" encoding="UTF-8"?>
<svg width="19px" height="18px" viewBox="0 0 19 18" version="1.1" xmlns="http://www.w3.org/2000/svg" xmlns:xlink="http://www.w3.org/1999/xlink">
    <!-- Generator: Sketch 46.2 (44496) - http://www.bohemiancoding.com/sketch -->
    <title>if_icon-pause_211871</title>
    <desc>Created with Sketch.</desc>
    <defs></defs>
    <g id="Page-1" stroke="none" stroke-width="1" fill="none" fill-rule="evenodd">
        <g id="Timers" transform="translate(-427.000000, -133.000000)" fill-rule="nonzero" fill="#FFFFFF">
            <g id="Timer" transform="translate(15.000000, 119.000000)">
                <g id="Timer-control-icons" transform="translate(412.000000, 14.000000)">
                    <g id="if_icon-pause_211871">
                        <path d="M7.6,17.428125 L7.6,0.5671875 C7.6,0.253125 7.1725,0 6.63416667,0 L0.965833333,0 C0.4275,0 0,0.253125 0,0.5671875 L0,17.428125 C0,17.7421875 0.4275,18 0.965833333,18 L6.63416667,18 C7.1725,18 7.6,17.746875 7.6,17.428125 Z" id="Shape"></path>
                        <path d="M18.0341667,0 L12.3658333,0 C11.8354167,0 11.4,0.253125 11.4,0.5671875 L11.4,17.428125 C11.4,17.7421875 11.8275,18 12.3658333,18 L18.0341667,18 C18.5645833,18 19,17.746875 19,17.428125 L19,0.5671875 C19,0.253125 18.5725,0 18.0341667,0 Z" id="Shape"></path>
                    </g>
                </g>
            </g>
        </g>
    </g>
</svg>